<?xml version="1.0" encoding="UTF-8"?>
<svg version="1.1" xmlns="http://www.w3.org/2000/svg" viewBox="0 0 512 512" width="100%" 
     height="100%" preserveAspectRatio="xMidYMid meet">
<path d="M0 0 C1.05506241 -0.0032856 1.05506241 -0.0032856 2.13143921 -0.00663757 C11.33780368 0.02491455 19.7002135 1.73432311 26.73828125 8.08984375 C33.52728947 16.65649422 35.54598999 27.12711185 38.19189453 37.47851562 C40.38892493 45.98624375 42.86419039 54.04903727 46.74609375 61.95703125 C47.06569061 62.61760529 47.38528748 63.27817932 47.71456909 63.95877075 C50.15884461 68.6894995 52.97300674 71.7072065 57.73828125 74.08984375 C59.85197436 74.15186961 61.96767598 74.14955304 64.08203125 74.1171875 C65.38269531 74.10333008 66.68335938 74.08947266 68.0234375 74.07519531 C68.71195801 74.06685669 69.40047852 74.05851807 70.10986328 74.04992676 C94.53233595 73.79079866 122.04860791 74.02796822 140.83984375 92.0390625 C149.97556433 101.90789645 152.85873324 115.61288379 152.94140625 128.75390625 C152.94832993 129.51400497 152.9552536 130.2741037 152.96238708 131.05723572 C152.97999026 133.6098229 152.98602053 136.16219801 152.98828125 138.71484375 C152.98962067 139.60855682 152.99096008 140.5022699 152.99234009 141.42306519 C152.98369955 168.67740554 151.42781908 195.89566772 149.73828125 223.08984375 C149.68498657 223.94993042 149.63169189 224.81001709 149.57678223 225.69616699 C148.29795252 245.8850099 145.58225538 265.93526622 143.0071373 285.99107742 C142.74059358 288.07179305 142.4764067 290.15279769 142.21255493 292.2338562 C141.71251871 296.16664712 141.19523772 300.09706873 140.67578125 304.02734375 C140.52578171 305.21034561 140.37578217 306.39334747 140.22123718 307.61219788 C138.44097959 320.81915858 134.97819761 330.0372861 124.61328125 338.83984375 C105.52021469 352.65049523 76.25815779 353.48607313 53.73828125 356.08984375 C52.57522461 356.22632324 51.41216797 356.36280273 50.21386719 356.50341797 C-7.14106999 363.06638037 -64.56323221 363.55175694 -122.09179688 359.51318359 C-128.31809803 359.07936773 -134.54714603 358.70101542 -140.77734375 358.328125 C-143.80634801 358.14249641 -146.83526485 357.9555222 -149.86413574 357.76773071 C-151.75436002 357.65168701 -153.64473761 357.53810664 -155.53527832 357.42733765 C-196.18588346 355.02268906 -196.18588346 355.02268906 -207.3828125 344.30078125 C-238.2672356 307.95861186 -226.3391565 222.59968254 -227.44921875 177.08984375 C-227.47076649 176.2069228 -227.49231422 175.32400185 -227.51451492 174.41432571 C-227.65812927 168.49378051 -227.79589265 162.57311847 -227.9296875 156.65234375 C-227.94714649 155.89183149 -227.96460548 155.13131924 -227.98259354 154.34776115 C-228.98311322 110.32523332 -228.98311322 110.32523332 -218.07421875 96.71484375 C-209.27383443 87.53349042 -196.69323239 83.05911228 -184.38671875 81.15234375 C-183.41001221 80.9932251 -182.43330566 80.83410645 -181.42700195 80.67016602 C-174.07063583 79.53124592 -166.6938794 78.65747954 -159.296875 77.83203125 C-158.32768127 77.72380539 -157.35848755 77.61557953 -156.35992432 77.5040741 C-151.46121517 76.96107608 -146.56136509 76.43392743 -141.65869141 75.92797852 C-126.29781758 75.30129369 -126.29781758 75.30129369 -113.20141602 69.00976562 C-110.80300024 65.39931217 -109.32077867 61.75398428 -107.80078125 57.7109375 C-107.48773041 56.90302261 -107.17467957 56.09510773 -106.85214233 55.26271057 C-105.85518763 52.68742774 -104.86996708 50.10788767 -103.88671875 47.52734375 C-90.32966885 12.07639871 -90.32966885 12.07639871 -80.39453125 6.47265625 C-74.73326884 4.22555682 -68.58480491 4.04393172 -62.57421875 3.52734375 C-61.21661948 3.40405103 -59.85903516 3.28059351 -58.50146484 3.15698242 C-47.80993488 2.20898214 -37.10217751 1.51406109 -26.38671875 0.90234375 C-25.28549179 0.8381575 -25.28549179 0.8381575 -24.16201782 0.77267456 C-16.10710937 0.31197134 -8.0688955 0.01716183 0 0 Z M-11.77978516 30.33349609 C-12.66816071 30.38710297 -13.55653625 30.44070984 -14.47183228 30.49594116 C-18.53720408 30.74879599 -22.60248015 31.00295209 -26.66748047 31.26171875 C-28.80271665 31.39644623 -30.93813544 31.52831214 -33.07373047 31.65722656 C-36.17070045 31.84428221 -39.26698954 32.04034893 -42.36328125 32.23828125 C-43.30531403 32.29358002 -44.2473468 32.34887878 -45.21792603 32.40585327 C-58.70596845 33.01126391 -58.70596845 33.01126391 -70.26171875 39.08984375 C-75.29241959 48.2397336 -77.48886818 59.52461479 -80.40454102 69.50390625 C-88.04163139 95.5639187 -88.04163139 95.5639187 -97.26171875 101.08984375 C-103.02124036 102.95883591 -108.99987129 103.44941613 -115.01171875 103.765625 C-116.67762914 103.86878551 -118.34348023 103.97290714 -120.00927734 104.07788086 C-121.29689972 104.156418 -121.29689972 104.156418 -122.61053467 104.23654175 C-135.4031419 105.03657668 -148.05789526 105.96270067 -160.63671875 108.52734375 C-162.06564453 108.81702026 -162.06564453 108.81702026 -163.5234375 109.11254883 C-173.04746538 111.22392657 -182.2436304 114.3585033 -189.44921875 121.15234375 C-193.77260507 128.15921123 -194.4678964 135.75845498 -194.828125 143.81640625 C-194.86834778 144.67880417 -194.90857056 145.54120209 -194.95001221 146.42973328 C-195.45243315 158.24881447 -195.50400557 170.07423421 -195.51171875 181.90234375 C-195.51305817 183.13105194 -195.51439758 184.35976013 -195.51577759 185.6257019 C-195.51129195 204.74641458 -194.67607656 223.59536492 -192.90568542 242.62384033 C-192.30540191 249.22030844 -191.86800045 255.82239702 -191.46484375 262.43359375 C-191.40025467 263.49074081 -191.33566559 264.54788788 -191.26911926 265.6370697 C-191.01590027 269.8189834 -190.76585374 274.00105011 -190.52377319 278.18362427 C-190.8903272 298.70992421 -190.8903272 298.70992421 -183.26171875 316.08984375 C-176.79350825 318.92516637 -169.84902562 319.72643349 -162.8828125 320.40625 C-161.92097046 320.50769821 -160.95912842 320.60914642 -159.96813965 320.71366882 C-156.87943235 321.0365217 -153.78951056 321.34506063 -150.69921875 321.65234375 C-148.56383767 321.87097246 -146.42850248 322.09004982 -144.29321289 322.30957031 C-129.96329594 323.77085354 -115.63571557 325.14266221 -101.26171875 326.08984375 C-100.51455597 326.13953812 -99.76739319 326.18923248 -98.99758911 326.24043274 C-80.33305423 327.4162657 -61.62676816 327.27727603 -42.93408203 327.27514648 C-39.16678037 327.27506544 -35.39960087 327.28198784 -31.63232422 327.2956543 C8.01837502 327.4371043 47.11719905 326.09053284 85.73828125 316.08984375 C86.42535156 315.91453125 87.11242187 315.73921875 87.8203125 315.55859375 C94.65639564 313.77647839 100.57271993 312.03081545 105.73828125 307.08984375 C108.3128766 301.28012358 109.4823479 295.75234045 110.29296875 289.4765625 C110.41622528 288.56766769 110.53948181 287.65877289 110.66647339 286.72233582 C111.8943729 277.40392065 112.80013396 268.05766822 113.61865234 258.69555664 C113.86417759 255.89210919 114.11896325 253.08961446 114.375 250.28710938 C115.91639064 233.19404282 116.81227262 216.16472733 117.12698364 199.0071106 C117.44720807 181.91385505 118.10041946 164.86031655 119.07788086 147.79223633 C121.31351675 128.0323768 121.31351675 128.0323768 115.42578125 110.02734375 C110.35065058 106.36852862 105.71045173 105.70755125 99.5625 105.453125 C98.74214767 105.41455887 97.92179535 105.37599274 97.07658386 105.33625793 C90.05195058 105.05103628 83.03676625 105.06607842 76.0078125 105.1328125 C74.36279251 105.14793381 74.36279251 105.14793381 72.68453979 105.1633606 C68.15198213 105.20917316 63.61978403 105.25903091 59.08764648 105.33666992 C55.72763109 105.39119785 52.36815953 105.42022131 49.0078125 105.4453125 C47.99314407 105.4690947 46.97847565 105.49287689 45.93305969 105.51737976 C39.75211322 105.54012709 34.81303291 104.83342665 29.73828125 101.08984375 C24.36196927 94.97531425 22.31518077 86.81914302 19.86328125 79.21484375 C19.42850955 77.89270006 18.99361194 76.57059777 18.55859375 75.24853516 C15.3201683 65.31186269 12.48260811 55.29165629 9.89501953 45.16455078 C9.6370459 44.15763184 9.37907227 43.15071289 9.11328125 42.11328125 C8.78457031 40.797229 8.78457031 40.797229 8.44921875 39.45458984 C7.75297472 37.13871771 6.97301755 35.1682103 5.73828125 33.08984375 C3.71530677 31.96376747 3.71530677 31.96376747 1.36328125 31.33984375 C0.59242188 31.0975 -0.1784375 30.85515625 -0.97265625 30.60546875 C-4.56908309 29.79535213 -8.12976024 30.11180291 -11.77978516 30.33349609 Z " fill="#F7E6CD" transform="translate(293.26171875,74.91015625)"/>
<path d="M0 0 C0.37125 -0.88365234 0.37125 -0.88365234 0.75 -1.78515625 C6.37591262 -11.75357018 20.71010038 -16.13456218 30.921875 -19.203125 C49.65489545 -24.05279019 71.22816778 -22.60256279 88.0625 -12.75 C99.1721687 -4.94457267 105.77171867 5.69085178 108.4921875 18.93359375 C111.30255125 38.19401952 109.38954023 58.75976085 100 76 C99.4740625 77.00675781 98.948125 78.01351562 98.40625 79.05078125 C94.72732167 85.76482545 90.6553975 90.87630654 85 96 C84.21625 96.804375 83.4325 97.60875 82.625 98.4375 C73.45162021 107.39246598 63.57911502 114.87163558 53.21484375 122.38867188 C48.43283052 125.86764976 43.71741797 129.43412928 39 133 C37.95714844 133.77472656 36.91429687 134.54945313 35.83984375 135.34765625 C30.00580041 139.7190434 24.57827182 144.26771846 19.3125 149.3125 C11.53276386 156.64395924 4.5217935 160.7465168 -6.43359375 161.19921875 C-33.6936221 159.67647894 -54.81775326 138.61534857 -74.84716797 122.15112305 C-75.49057129 121.62429932 -76.13397461 121.09747559 -76.796875 120.5546875 C-77.36760742 120.08530762 -77.93833984 119.61592773 -78.52636719 119.13232422 C-80.01847562 117.91144939 -80.01847562 117.91144939 -82 117 C-82 116.34 -82 115.68 -82 115 C-82.86588745 114.61871948 -82.86588745 114.61871948 -83.74926758 114.22973633 C-95.51484759 107.80135727 -106.33781338 93.39545507 -113 82 C-113.56847656 81.030625 -114.13695312 80.06125 -114.72265625 79.0625 C-122.55922928 64.58313164 -125.24255973 49.49081252 -121.171875 33.49609375 C-114.85087614 14.63844714 -102.25322758 -3.76657968 -85 -14 C-80.75502952 -16.01239252 -76.48309726 -17.60362544 -72 -19 C-71.21496094 -19.24621094 -70.42992187 -19.49242187 -69.62109375 -19.74609375 C-44.10233252 -26.18125963 -19.54333184 -15.98999878 0 0 Z M-75 19 C-75.61746094 19.53625 -76.23492187 20.0725 -76.87109375 20.625 C-84.98007398 28.13799727 -91.43029013 38.24592152 -92.16015625 49.4609375 C-91.68941748 61.39887263 -83.42328408 70.37145947 -76 79 C-75.01886871 80.22759906 -74.0392676 81.45642604 -73.0625 82.6875 C-72.0415625 83.8321875 -72.0415625 83.8321875 -71 85 C-70.34 85 -69.68 85 -69 85 C-68.34 86.32 -67.68 87.64 -67 89 C-66.34 89 -65.68 89 -65 89 C-64.67 89.99 -64.34 90.98 -64 92 C-60.5599637 95.26007465 -56.74443241 98.09816878 -53 101 C-52.38576172 101.47711426 -51.77152344 101.95422852 -51.13867188 102.44580078 C-31.87635036 118.53523208 -31.87635036 118.53523208 -8.875 126.5 C-0.85750608 125.46548466 4.50969247 120.98943568 10.65893555 116.12524414 C14.97521447 112.7251536 19.43678975 109.62048465 24 106.5625 C31.4629744 101.52552841 38.24263166 95.93603075 45 90 C45.74765625 89.38640625 46.4953125 88.7728125 47.265625 88.140625 C61.5121633 76.36199097 74.15405858 57.74532575 76.21875 39.015625 C76.51749799 32.59254322 74.87604245 27.30485215 70.8125 22.3125 C61.33919246 14.52333603 53.02014438 12.99434174 41 14 C30.65160557 15.88565694 22.81539908 20.807299 14.41015625 26.8671875 C2.05522228 35.73837276 2.05522228 35.73837276 -5.875 36.25 C-12.81033653 34.87666603 -18.45998043 29.1851639 -23.65625 24.71484375 C-40.02032637 10.68505475 -57.35420499 3.16825868 -75 19 Z " fill="#F7E7CE" transform="translate(269,220)"/>
<path d="M0 0 C3.81422234 2.05381203 7.00010435 4.10546637 9 8 C10.31900576 13.64974135 10.43120486 18.63108928 8 24 C5.01052947 27.18349866 1.52140862 30.74241012 -2.98828125 31.203125 C-7.81493582 31.30046929 -11.16394014 31.27193341 -15 28 C-18.41985548 23.84731835 -19.13170772 19.25952826 -19 14 C-18.15455424 9.4116099 -16.53275489 6.13714204 -13 3.0625 C-8.55543678 0.00686278 -5.33787161 -0.452362 0 0 Z " fill="#F7E7CD" transform="translate(134,196)"/>
</svg>
